REM DIRINDEX 1\2,1\3,1\4
REM DIRNAME folder01,folder02,folder03,folder04
TITLE ""
FILE "109 109_TOEFL_3900.mp3" MP3
  TRACK 01 AUDIO
    TITLE "2:cjc151_4753"
    INDEX 01 00:00:00
  TRACK 02 AUDIO
    TITLE "0:"
    INDEX 01 00:01:34
  TRACK 03 AUDIO
    TITLE "3:cjc151_4754"
    INDEX 01 00:03:14
  TRACK 04 AUDIO
    TITLE "0:"
    INDEX 01 00:06:22
  TRACK 05 AUDIO
    TITLE "2:cjc151_4755"
    INDEX 01 00:08:01
  TRACK 06 AUDIO
    TITLE "0:"
    INDEX 01 00:09:04
  TRACK 07 AUDIO
    TITLE "3:cjc151_4756"
    INDEX 01 00:10:59
  TRACK 08 AUDIO
    TITLE "0:"
    INDEX 01 00:14:19
  TRACK 09 AUDIO
    TITLE "2:cjc151_4757"
    INDEX 01 00:16:02
  TRACK 10 AUDIO
    TITLE "0:"
    INDEX 01 00:17:45
  TRACK 11 AUDIO
    TITLE "3:cjc151_4758"
    INDEX 01 00:19:24
  TRACK 12 AUDIO
    TITLE "0:"
    INDEX 01 00:22:66
  TRACK 13 AUDIO
    TITLE "2:cjc151_4759"
    INDEX 01 00:24:47
  TRACK 14 AUDIO
    TITLE "0:"
    INDEX 01 00:25:60
  TRACK 15 AUDIO
    TITLE "3:cjc151_4760"
    INDEX 01 00:27:34
  TRACK 16 AUDIO
    TITLE "0:"
    INDEX 01 00:31:02
  TRACK 17 AUDIO
    TITLE "2:cjc151_4761"
    INDEX 01 00:32:56
  TRACK 18 AUDIO
    TITLE "0:"
    INDEX 01 00:34:06
  TRACK 19 AUDIO
    TITLE "3:cjc151_4762"
    INDEX 01 00:35:59
  TRACK 20 AUDIO
    TITLE "0:"
    INDEX 01 00:39:31
  TRACK 21 AUDIO
    TITLE "2:cjc151_4763"
    INDEX 01 00:41:10
  TRACK 22 AUDIO
    TITLE "0:"
    INDEX 01 00:42:35
  TRACK 23 AUDIO
    TITLE "3:cjc151_4764"
    INDEX 01 00:44:14
  TRACK 24 AUDIO
    TITLE "0:"
    INDEX 01 00:48:24
  TRACK 25 AUDIO
    TITLE "2:cjc151_4765"
    INDEX 01 00:50:03
  TRACK 26 AUDIO
    TITLE "0:"
    INDEX 01 00:51:15
  TRACK 27 AUDIO
    TITLE "3:cjc151_4766"
    INDEX 01 00:53:02
  TRACK 28 AUDIO
    TITLE "0:"
    INDEX 01 00:55:67
  TRACK 29 AUDIO
    TITLE "2:cjc151_4767"
    INDEX 01 00:57:46
  TRACK 30 AUDIO
    TITLE "0:"
    INDEX 01 00:58:54
  TRACK 31 AUDIO
    TITLE "3:cjc151_4768"
    INDEX 01 01:00:31
  TRACK 32 AUDIO
    TITLE "0:"
    INDEX 01 01:04:37
  TRACK 33 AUDIO
    TITLE "2:cjc151_4769"
    INDEX 01 01:06:14
  TRACK 34 AUDIO
    TITLE "0:"
    INDEX 01 01:08:03
  TRACK 35 AUDIO
    TITLE "3:cjc151_4770"
    INDEX 01 01:09:56
  TRACK 36 AUDIO
    TITLE "0:"
    INDEX 01 01:13:71
  TRACK 37 AUDIO
    TITLE "2:cjc151_4771"
    INDEX 01 01:15:52
  TRACK 38 AUDIO
    TITLE "0:"
    INDEX 01 01:17:02
  TRACK 39 AUDIO
    TITLE "3:cjc151_4772"
    INDEX 01 01:18:54
  TRACK 40 AUDIO
    TITLE "0:"
    INDEX 01 01:22:31
  TRACK 41 AUDIO
    TITLE "2:cjc151_4773"
    INDEX 01 01:24:12
  TRACK 42 AUDIO
    TITLE "0:"
    INDEX 01 01:26:07
  TRACK 43 AUDIO
    TITLE "3:cjc151_4774"
    INDEX 01 01:27:61
  TRACK 44 AUDIO
    TITLE "0:"
    INDEX 01 01:30:62
  TRACK 45 AUDIO
    TITLE "2:cjc151_4775"
    INDEX 01 01:32:39
  TRACK 46 AUDIO
    TITLE "0:"
    INDEX 01 01:33:70
  TRACK 47 AUDIO
    TITLE "3:cjc151_4776"
    INDEX 01 01:35:47
  TRACK 48 AUDIO
    TITLE "0:"
    INDEX 01 01:39:43
  TRACK 49 AUDIO
    TITLE "2:cjc151_4777"
    INDEX 01 01:41:24
  TRACK 50 AUDIO
    TITLE "0:"
    INDEX 01 01:42:65
  TRACK 51 AUDIO
    TITLE "3:cjc151_4778"
    INDEX 01 01:44:44
  TRACK 52 AUDIO
    TITLE "0:"
    INDEX 01 01:48:30
  TRACK 53 AUDIO
    TITLE "2:cjc151_4779"
    INDEX 01 01:50:09
  TRACK 54 AUDIO
    TITLE "0:"
    INDEX 01 01:51:30
  TRACK 55 AUDIO
    TITLE "3:cjc151_4780"
    INDEX 01 01:53:12
  TRACK 56 AUDIO
    TITLE "0:"
    INDEX 01 01:57:08
  TRACK 57 AUDIO
    TITLE "2:cjc151_4781"
    INDEX 01 01:58:60
  TRACK 58 AUDIO
    TITLE "0:"
    INDEX 01 02:00:10
  TRACK 59 AUDIO
    TITLE "3:cjc151_4782"
    INDEX 01 02:01:68
  TRACK 60 AUDIO
    TITLE "0:"
    INDEX 01 02:05:58
  TRACK 61 AUDIO
    TITLE "2:cjc151_4783"
    INDEX 01 02:07:37
  TRACK 62 AUDIO
    TITLE "0:"
    INDEX 01 02:09:09
  TRACK 63 AUDIO
    TITLE "3:cjc151_4784"
    INDEX 01 02:10:57
  TRACK 64 AUDIO
    TITLE "0:"
    INDEX 01 02:14:31
  TRACK 65 AUDIO
    TITLE "2:cjc151_4785"
    INDEX 01 02:16:11
  TRACK 66 AUDIO
    TITLE "0:"
    INDEX 01 02:19:23
  TRACK 67 AUDIO
    TITLE "3:cjc151_4786"
    INDEX 01 02:21:02
  TRACK 68 AUDIO
    TITLE "0:"
    INDEX 01 02:25:57
  TRACK 69 AUDIO
    TITLE "2:cjc151_4787"
    INDEX 01 02:27:38
  TRACK 70 AUDIO
    TITLE "0:"
    INDEX 01 02:28:63
  TRACK 71 AUDIO
    TITLE "3:cjc151_4788"
    INDEX 01 02:30:42
  TRACK 72 AUDIO
    TITLE "0:"
    INDEX 01 02:34:56
  TRACK 73 AUDIO
    TITLE "2:cjc151_4789"
    INDEX 01 02:36:35
  TRACK 74 AUDIO
    TITLE "0:"
    INDEX 01 02:38:03
  TRACK 75 AUDIO
    TITLE "3:cjc151_4790"
    INDEX 01 02:39:55
  TRACK 76 AUDIO
    TITLE "0:"
    INDEX 01 02:43:35
  TRACK 77 AUDIO
    TITLE "2:cjc151_4791"
    INDEX 01 02:45:14
  TRACK 78 AUDIO
    TITLE "0:"
    INDEX 01 02:46:51
  TRACK 79 AUDIO
    TITLE "3:cjc151_4792"
    INDEX 01 02:48:40
  TRACK 80 AUDIO
    TITLE "0:"
    INDEX 01 02:52:73
  TRACK 81 AUDIO
    TITLE "2:cjc151_4793"
    INDEX 01 02:54:51
  TRACK 82 AUDIO
    TITLE "0:"
    INDEX 01 02:56:28
  TRACK 83 AUDIO
    TITLE "3:cjc151_4794"
    INDEX 01 02:58:07
  TRACK 84 AUDIO
    TITLE "0:"
    INDEX 01 03:03:03
  TRACK 85 AUDIO
    TITLE "2:cjc151_4795"
    INDEX 01 03:04:51
  TRACK 86 AUDIO
    TITLE "0:"
    INDEX 01 03:05:72
  TRACK 87 AUDIO
    TITLE "3:cjc151_4796"
    INDEX 01 03:07:45
  TRACK 88 AUDIO
    TITLE "0:"
    INDEX 01 03:11:27
